<svg xmlns="http://www.w3.org/2000/svg" width="412.294" height="88.912" viewBox="0 0 412.294 88.912">
  <g id="グループ_111" data-name="グループ 111" transform="translate(-476.853 -868.088)">
    <g id="グループ_67" data-name="グループ 67" transform="translate(156.035 727.708)">
      <path id="パス_28" data-name="パス 28" d="M326.923,148.159a61.483,61.483,0,0,0,3.818,10.964c1.608-.87,2.653-1.39,4.377-2.205l4.52-2.184a6.282,6.282,0,0,0,1.238-.685l1.783,3.534a87.376,87.376,0,0,0-10.812,4.8c-5.138,2.689-7.528,5.369-7.2,8.079.2,1.688,1.434,2.718,3.719,3.015a27.307,27.307,0,0,0,5.615-.212,38.129,38.129,0,0,0,10.5-2.62l.805,4.009c-.736.124-.841.137-2.716.576a69.774,69.774,0,0,1-8,1.463c-4.716.568-7.7.391-10.034-.614a6.312,6.312,0,0,1-3.669-5.27,8.086,8.086,0,0,1,2.4-6.467,22.068,22.068,0,0,1,4.36-3.521A78.846,78.846,0,0,1,324,151.437a11.044,11.044,0,0,0-.835-2.184Zm11.6-1.755a23.675,23.675,0,0,1,4.3,4.84l-2.037,1.459a26.118,26.118,0,0,0-4.308-4.945Zm3.877-2.5a22.025,22.025,0,0,1,4.242,4.7l-2,1.491a27.135,27.135,0,0,0-4.226-4.848Z" transform="translate(0 5.525)"/>
      <path id="パス_29" data-name="パス 29" d="M337.125,152.6a18.744,18.744,0,0,0,3.568-1.049,48.419,48.419,0,0,1,10.552-2.493c3.917-.37,6.6.515,8.376,2.733a7.614,7.614,0,0,1,1.606,4.192c.418,4.411-2.447,8.384-7.682,10.623-2.054.87-2.781,1.083-7.388,2.088a9.049,9.049,0,0,0-1.589-3.267l.53-.05a27.66,27.66,0,0,0,7.163-1.816,10.322,10.322,0,0,0,4.573-3.6,5.639,5.639,0,0,0,.929-3.719c-.286-3.036-2.514-4.392-6.538-4.011a42.142,42.142,0,0,0-9.116,2.252,21.183,21.183,0,0,0-3.87,1.61Z" transform="translate(17.975 10.593)"/>
      <path id="パス_30" data-name="パス 30" d="M353.077,148.485a36.535,36.535,0,0,0,7.684.076,29.249,29.249,0,0,0,.61-6.122l4.022.08c-.137.578-.137.578-.421,2.161-.271,1.726-.368,2.371-.607,3.561,6.532-.662,11.342-1.528,13.556-2.428l.425,3.563c-.845.128-.845.128-3.969.7-2.668.5-7.072,1.091-10.6,1.44a46.854,46.854,0,0,1-2.659,8.361c2.216-1.894,5.617-3.088,9.685-3.37a11.727,11.727,0,0,1,7.11,1.537,6.075,6.075,0,0,1,2.674,4.758c.347,5.025-4.343,8.689-11.773,9.2a30.47,30.47,0,0,1-9.042-.694,16.789,16.789,0,0,0-.542-3.732,24.568,24.568,0,0,0,9.143,1.114c5.306-.366,8.638-2.586,8.428-5.63-.166-2.407-2.561-3.629-6.559-3.351a18.7,18.7,0,0,0-7.73,2.346,6.9,6.9,0,0,0-2.577,2.31l-3.662-1.028a23.609,23.609,0,0,0,1.533-3.555,81.319,81.319,0,0,0,2.4-8.056c-1.842.126-3.723.149-5.609.137-.46,0-.816.021-1.062.038a1.153,1.153,0,0,0-.282.055Z" transform="translate(35.559 2.27)"/>
      <path id="パス_31" data-name="パス 31" d="M383.545,160.26c-1.846,4.766-3.915,6.915-6.677,7.039-3.755.166-6.692-3.641-6.931-9.025a14.94,14.94,0,0,1,3.378-10.264c2.763-3.315,6.761-5.161,11.683-5.38,8.252-.366,13.9,4.457,14.237,12.107a13.383,13.383,0,0,1-7.861,13.23,26.321,26.321,0,0,1-5.386,1.766,9.255,9.255,0,0,0-1.959-3.391,23.945,23.945,0,0,0,5.813-1.713,10.3,10.3,0,0,0,5.735-9.906,8.989,8.989,0,0,0-5.218-8.073,8.333,8.333,0,0,0-3.835-.822A52.277,52.277,0,0,1,383.545,160.26Zm-5.407-12.322a12.058,12.058,0,0,0-4.764,10.217c.137,3.082,1.592,5.466,3.29,5.39,1.276-.057,2.519-1.673,3.757-4.957a48.954,48.954,0,0,0,2.493-12.566A9.851,9.851,0,0,0,378.138,147.939Z" transform="translate(54.128 2.459)"/>
      <path id="パス_32" data-name="パス 32" d="M386.172,146.948a15.613,15.613,0,0,0,2.84.12l7.02-.147a18.659,18.659,0,0,0,2.832-.2l.065,3.084a16.106,16.106,0,0,0-2.664-.088l-7.194.151a20.939,20.939,0,0,0-2.832.2Zm1.388-4.993a14.321,14.321,0,0,0,2.731.122l4.858-.1a14.619,14.619,0,0,0,2.725-.235l.063,3.013a21.323,21.323,0,0,0-2.733-.084l-4.854.1a20,20,0,0,0-2.729.2Zm.177,10.209a18.78,18.78,0,0,0,2.306.059l5.67-.118a17.269,17.269,0,0,0,2.268-.153l.057,2.8a19.791,19.791,0,0,0-2.271-.059l-5.67.118a18.92,18.92,0,0,0-2.3.153Zm15.023,6.179a22.1,22.1,0,0,0-2.55.2c.055-.711.074-1.526.055-2.485l-.12-5.777a20.762,20.762,0,0,0-.2-2.762,23.511,23.511,0,0,0,2.981.08l6.416-.132a30.183,30.183,0,0,0,2.8-7.081l3.282,1.03a41.446,41.446,0,0,1-2.783,5.981l1.455-.032a21.135,21.135,0,0,0,2.8-.2c-.053.959-.074,1.634-.055,2.59l.128,6.061c.021.992.067,1.56.156,2.374a24.43,24.43,0,0,0-2.59-.088l-2.2.046.217,10.457c.017.744.267.881,1.614.851.994-.019,1.486-.172,1.692-.53.307-.574.387-1.816.4-4.69a8.569,8.569,0,0,0,2.828,1.219c-.208,3.656-.4,4.793-.982,5.693-.584.864-1.747,1.207-4.158,1.257-3.614.076-4.335-.408-4.385-2.781l-.235-11.414-2.7.055a26.217,26.217,0,0,1-1.1,8.569,12.611,12.611,0,0,1-4.976,6.311,9.875,9.875,0,0,0-2.138-2.26c.048.637.055.954.1,1.451l-2.872.059-.023-1.169-4.539.095.04,1.913-3.084.065c.086-.994.13-2.344.107-3.441l-.107-5.1a23.831,23.831,0,0,0-.2-2.832,13.69,13.69,0,0,0,2.344.09l5.99-.124a14.84,14.84,0,0,0,2.161-.151,16.7,16.7,0,0,0-.086,2.628l.149,5.529.017.744a9.177,9.177,0,0,0,4.259-4.842c.706-1.823.982-3.957.98-7.467Zm-14.922-1.215a19.262,19.262,0,0,0,2.308.059l5.67-.118a17.471,17.471,0,0,0,2.266-.153l.061,2.8a19.5,19.5,0,0,0-2.308-.059l-5.636.116a19.407,19.407,0,0,0-2.3.156Zm3.116,11.531,4.606-.095-.086-4.112-4.606.095Zm12.995-21.3a21.71,21.71,0,0,0-3.055-5.327l2.844-1.442a27.914,27.914,0,0,1,3.05,5.184Zm-.717,8.1,10.564-.221-.105-4.964-10.562.221Z" transform="translate(72.041)"/>
      <path id="パス_33" data-name="パス 33" d="M404.028,145.354a32.4,32.4,0,0,0-.116-3.547c1.1.08,1.842.12,4.074.137l4.892.036c1.56.011,2.2-.021,3.122-.084-.078.921-.118,1.488-.132,3.294l-.113,15.7c-.015,2.092-.019,2.765.046,3.58l-3.084-.023.01-1.558-5.741-.042-.019,2.657-3.3-.023a31.135,31.135,0,0,0,.244-4Zm2.943,14.662,5.777.042.046-6.557-5.777-.044Zm.067-9.322,5.777.04.044-5.884-5.779-.04Zm14.107,9.885a21.691,21.691,0,0,1-2.029,6.046,16.132,16.132,0,0,1-4.4,5.5,9.184,9.184,0,0,0-2.569-2.392,14.129,14.129,0,0,0,5.7-8.678c.73-3.008.965-6.09,1.018-13.428.023-3.05-.032-5.462-.164-6.561a35.421,35.421,0,0,0,3.719.17l7.659.055a30.75,30.75,0,0,0,3.65-.116,32.381,32.381,0,0,0-.168,3.721l-.166,23.149c-.021,2.729-1.055,3.572-4.388,3.547-.921-.006-2.09-.05-3.294-.13a10.475,10.475,0,0,0-.79-3.336,29.832,29.832,0,0,0,4,.383c1.028.008,1.28-.2,1.285-1.089l.05-6.772Zm.772-8.432c-.088,2.233-.168,3.652-.362,5.563l8.722.065.038-5.567Zm8.46-7.949-8.331-.061-.032,4.36c0,.425-.006.709-.006.887l8.329.059Z" transform="translate(91.328 0.753)"/>
      <path id="パス_34" data-name="パス 34" d="M430.409,145.306a14.832,14.832,0,0,0,1.644-4.533l3.887.6a3.5,3.5,0,0,0-.448.8l-1.167,2.559c-.113.21-.225.456-.3.595a1.083,1.083,0,0,0,.286-.027l.177,0c.177,0,.816-.015,1.776-.059a44.528,44.528,0,0,0,9.46-.959l.124,3.374c-.784.05-.784.05-2.775.246-2.487.254-7.07.452-10.545.433a21.362,21.362,0,0,1-3.973,5.428l.034.071a7.465,7.465,0,0,1,.759-.547,8.864,8.864,0,0,1,5.437-1.7,5.343,5.343,0,0,1,3.408,1.226,4.259,4.259,0,0,1,1.383,2.731c2.9-.986,4.831-1.646,5.8-1.94a9.2,9.2,0,0,0,2.544-.961l1.362,3.442a56.81,56.81,0,0,0-9.4,2.7c0,1.276,0,1.276-.017,1.913-.013.462-.029,1.135-.044,1.667-.05.6-.061.992-.067,1.24a12.866,12.866,0,0,0,.059,1.739l-3.437-.019a42.607,42.607,0,0,0,.332-4.6c.006-.212.015-.5.023-.851-4.413,1.871-6.044,3.246-6.095,5.125-.055,2.128,1.768,2.956,6.729,3.086a29.972,29.972,0,0,0,9.858-1.2l.254,3.837a9.6,9.6,0,0,0-1.564.137,64.119,64.119,0,0,1-8.842.406c-3.58-.093-5.91-.58-7.621-1.619a4.887,4.887,0,0,1-2.367-4.425c.088-3.3,3.1-6.055,9.3-8.517a2.213,2.213,0,0,0-2.352-2.331c-2.125-.057-4.783,1.152-7.644,3.488a14.18,14.18,0,0,0-2.99,3.044l-2.657-2.8a29.776,29.776,0,0,0,5.876-6.3c.441-.662,1.217-1.848,2.291-3.523-.143,0-.6-.015-.6-.015l-3.437-.126c-.885-.059-1.558-.111-2.052-.124l-.214-.006a3.54,3.54,0,0,0-.534.021l.162-3.364a38.448,38.448,0,0,0,6.9.605Z" transform="translate(110.151 0.433)"/>
      <path id="パス_35" data-name="パス 35" d="M445.48,162.526c-1.877-.095-2.905-.114-3.9-.093a27.3,27.3,0,0,0,.366-3.708l.639-12.572a43.856,43.856,0,0,0,.05-4.543,28.237,28.237,0,0,0,3.711.366l15.759.8a35.668,35.668,0,0,0,3.727.013,44.278,44.278,0,0,0-.406,4.524l-.639,12.572a26.77,26.77,0,0,0-.01,3.727c-.917-.118-2.155-.217-3.82-.3l-3.082-.156-.3,5.842c-.05,1.028.261,1.15,3.557,1.318,2.8.141,3.62.04,4.043-.612.418-.549.694-1.776.975-4.533a11.376,11.376,0,0,0,3.015,1.432c-1.045,6.622-1.524,6.988-8.466,6.637-5.456-.278-6.494-.79-6.37-3.235l.355-7.011-3.648-.185a10.751,10.751,0,0,1-3.589,6.351c-2.264,1.945-4.983,3.048-9.208,3.757a9.889,9.889,0,0,0-1.587-3.025c3.61-.456,5.485-1,7.316-2.115a7.368,7.368,0,0,0,3.633-5.142Zm-.458-2.865,16.608.843.164-3.259-16.608-.843Zm.3-6.019,16.613.841.151-3.008-16.608-.843Zm.294-5.773,16.608.843.153-2.975-16.61-.843Z" transform="translate(127.688 1.356)"/>
      <path id="パス_36" data-name="パス 36" d="M479.192,172.344a24.481,24.481,0,0,0-6.828-5.634c-.372-.242-1.158-.656-1.6-.9-.015.177-.031.389-.046.6-.32,4.243-2.945,6.069-8.107,5.683-4.772-.362-7.524-2.523-7.28-5.775.271-3.606,3.866-5.54,9.524-5.115a19.719,19.719,0,0,1,2.746.349c.01-.139.01-.139.038-.494a2.582,2.582,0,0,1-.006-.391c.017-.212.023-.78.084-1.594-.008-.355.031-.887.048-1.6-1.379-.1-2.865-.181-3.784-.25-2.191-.164-3.532-.3-6.2-.715-.423-.069-.74-.092-.986-.111l-.284-.021.275-3.179a45.343,45.343,0,0,0,8.159,1.184c.778.059,1.911.109,3.008.156l.238-4.072c-1.064-.044-1.629-.086-2.3-.137-2.014-.151-6.029-.633-8.6-1a6.1,6.1,0,0,0-.74-.09,3.359,3.359,0,0,0-.532-.006l.282-3.284a49.551,49.551,0,0,0,9.282,1.373c.568.044,1.734.132,2.8.177a35.544,35.544,0,0,0,.212-4.713l3.818.288a25.1,25.1,0,0,0-.593,4.577c5.046.061,8.077-.1,10.358-.641l-.109,3.332a20.674,20.674,0,0,0-2.64.122c-2.962.168-4.566.225-7.867.153-.057,1.24-.057,1.24-.233,4.036a46.4,46.4,0,0,0,9.61-.626l-.109,3.332a31.266,31.266,0,0,0-3.53.162c-1.467.1-4.026.124-6.156.069-.1,2.731-.183,4.322-.181,4.749a32.669,32.669,0,0,1,9.341,5.788,12.117,12.117,0,0,0,1.177.908Zm-14.992-8.17a7.233,7.233,0,0,0-4.545.868,2.053,2.053,0,0,0-.746,1.4c-.109,1.484,1.348,2.411,4.07,2.615q2.756.208,3.7-1a3.839,3.839,0,0,0,.664-2.224c.017-.212.048-1.1.048-1.1A13.559,13.559,0,0,0,464.2,164.174Z" transform="translate(148.258 2.649)"/>
      <path id="パス_37" data-name="パス 37" d="M472,147.729a13.246,13.246,0,0,0,1.579.244c.99.1,2.405.217,6.338.448,2.3.171,2.3.171,8.529.645a33.138,33.138,0,0,0,.246-4.785l3.74.4a32.376,32.376,0,0,0-.626,4.667c6.427.645,9.116.858,10.364.84l-.345,3.608a55.736,55.736,0,0,0-5.912-.816c-.952-.1-1.552-.166-4.383-.392l-.654,6.846a11.537,11.537,0,0,1,.519,5.013,12.072,12.072,0,0,1-5.958,9.364,23.323,23.323,0,0,1-6.36,2.367,11.375,11.375,0,0,0-1.821-3.688,15.765,15.765,0,0,0,6.193-1.784c2.638-1.485,4.1-3.36,4.554-5.866a5.433,5.433,0,0,1-5.554,2.564,6.16,6.16,0,0,1-5.613-6.908c.364-3.794,3.446-6.21,7.4-5.791a5.317,5.317,0,0,1,3.616,1.664,3.347,3.347,0,0,0,.013-.488c0-.038.1-1,.151-1.6l.16-2.012c-5.617-.523-14.17-.944-16.428-.807Zm8.323,12.834a3.145,3.145,0,0,0,2.9,3.615,3.57,3.57,0,0,0,4.066-3.362,2.275,2.275,0,0,0-.532-1.9,3.562,3.562,0,0,0-2.516-1.283A3.362,3.362,0,0,0,480.32,160.563Z" transform="translate(166.372 4.299)"/>
      <path id="パス_38" data-name="パス 38" d="M489.945,153.386c1.266.16,4.688.2,7.73.16a53.62,53.62,0,0,0,1.86-7.053,5.265,5.265,0,0,0,.046-.637l3.816.877c-.162.444-.265.681-.393,1.131-.225.65-.225.65-.4,1.2-.2.761-.2.761-1.03,3.334-.242.79-.252.86-.418,1.341.956.048,1.522.086,2.3.183a6.671,6.671,0,0,1,4.745,2.317c1.07,1.421,1.316,3.132.925,6.225-.74,5.838-2.327,10.459-4.159,12.227a4.234,4.234,0,0,1-3.927,1.11,15.77,15.77,0,0,1-5.193-1.873c.105-.559.2-1.011.238-1.327a16.407,16.407,0,0,0,.063-2.458,14.135,14.135,0,0,0,4.94,2.163c1.127.141,1.856-.551,2.67-2.449a33.458,33.458,0,0,0,1.964-8.146c.414-3.269-.4-4.48-3.317-4.85a17.861,17.861,0,0,0-2.268-.145,68.975,68.975,0,0,1-6.828,13.852c-.317.532-1.322,1.976-2.914,4.381l-3.164-2.365a35.878,35.878,0,0,0,4.48-6.04,61.3,61.3,0,0,0,4.947-9.984c-2.792.04-5.382.175-6.8.353Zm24.406-.334a33.637,33.637,0,0,1,5.641,14.113l-3.523,1.3a30.339,30.339,0,0,0-1.911-8.031,25.393,25.393,0,0,0-3.347-6.284Z" transform="translate(183.434 7.675)"/>
      <path id="パス_39" data-name="パス 39" d="M512.74,169.341a13.742,13.742,0,0,0,.437-2.121,6.319,6.319,0,0,1,2.025-4.278c.919-.826,1.078-.944,3.631-2.128,2.746-1.3,3.715-2.222,3.973-3.9.353-2.277-1.385-4.018-4.539-4.505a5.653,5.653,0,0,0-4.861,1.291,5.283,5.283,0,0,0-1.465,2.5l-4.123-1.175a8.859,8.859,0,0,1,3.6-4.68c2-1.306,4.5-1.709,7.612-1.226,3.154.488,5.435,1.737,6.812,3.744a5.791,5.791,0,0,1,1.045,4.608,6.516,6.516,0,0,1-2.735,4.457c-.654.509-.885.616-3.875,2.09-2.3,1.152-3.006,2.046-3.339,4.182a17.7,17.7,0,0,0-.164,1.768Zm3.734,3.7-.652,4.2-4.379-.677.652-4.2Z" transform="translate(206.134 11.051)"/>
    </g>
    <line id="線_13" data-name="線 13" x2="389" transform="translate(488.5 954.5)" fill="none" stroke="#707070" stroke-linecap="round" stroke-width="5" stroke-dasharray="12 17"/>
  </g>
</svg>
