<svg xmlns="http://www.w3.org/2000/svg" width="168.695" height="32.877" viewBox="0 0 168.695 32.877">
  <g id="グループ_110" data-name="グループ 110" transform="translate(-183 -6588.894)">
    <g id="グループ_5" data-name="グループ 5" transform="translate(183 6588.894)">
      <path id="パス_6" data-name="パス 6" d="M385.634,728.26l-13.789-22.435-.477-9.787,13.789,22.678" transform="translate(-361.112 -696.038)" fill="#09345a"/>
      <path id="パス_7" data-name="パス 7" d="M411.285,718.716V696.038h9.685V728.26h-9.209" transform="translate(-386.301 -696.038)" fill="#09345a"/>
      <path id="パス_8" data-name="パス 8" d="M353.258,706.7v22.435h-9.686V696.909h9.209" transform="translate(-343.573 -696.588)" fill="#09345a"/>
    </g>
    <path id="パス_9" data-name="パス 9" d="M568.237,738.855l-11.369-17.4v17.4h-7.986V711.789h7.593l11.369,16.543V711.789h7.986v27.066Z" transform="translate(-290.129 5882.917)" fill="#202020"/>
    <path id="パス_10" data-name="パス 10" d="M475.751,712.81q3.816,3.58,3.816,10.425t-3.816,10.425q-3.816,3.58-10.819,3.58t-10.8-3.56q-3.8-3.56-3.8-10.445t3.8-10.444q3.8-3.56,10.8-3.561T475.751,712.81Zm-15.067,4.6a6.758,6.758,0,0,0-1.456,4.563v2.518a6.756,6.756,0,0,0,1.456,4.563,5.3,5.3,0,0,0,4.249,1.692,5.358,5.358,0,0,0,4.269-1.692,6.7,6.7,0,0,0,1.475-4.563v-2.518a6.7,6.7,0,0,0-1.475-4.563,5.36,5.36,0,0,0-4.269-1.692A5.3,5.3,0,0,0,460.684,717.413Z" transform="translate(-227.944 5884.531)" fill="#202020"/>
    <path id="パス_11" data-name="パス 11" d="M662.369,711.335a7.072,7.072,0,0,1,3.423,6.235v.472h-8.143v-.158a2.55,2.55,0,0,0-.865-1.967,3.818,3.818,0,0,0-2.636-.787,5.583,5.583,0,0,0-2.656.511,1.474,1.474,0,0,0-.925,1.259,1.685,1.685,0,0,0,1.259,1.574,24.24,24.24,0,0,0,4.052,1.062,43.733,43.733,0,0,1,5.37,1.4,9.151,9.151,0,0,1,3.678,2.38,6.374,6.374,0,0,1,1.613,4.485q0,4.8-3.246,7.12a14.618,14.618,0,0,1-8.674,2.321q-6.334,0-9.855-2.124t-3.521-7.514h8.222a3.03,3.03,0,0,0,1.062,2.734,6.207,6.207,0,0,0,3.3.688,8.927,8.927,0,0,0,2.734-.354,1.415,1.415,0,0,0,1.082-1.456,1.6,1.6,0,0,0-1.2-1.475,24.021,24.021,0,0,0-3.914-1.043,44.84,44.84,0,0,1-5.469-1.475,9.222,9.222,0,0,1-3.776-2.537,6.853,6.853,0,0,1-1.613-4.8,7.13,7.13,0,0,1,3.442-6.55,16.458,16.458,0,0,1,8.714-2.1A15.778,15.778,0,0,1,662.369,711.335Z" transform="translate(-348.412 5884.531)" fill="#202020"/>
    <path id="パス_12" data-name="パス 12" d="M745.065,718.713v20.142h-6.329V718.713h-9.611v-6.924h26.437v6.924Z" transform="translate(-403.868 5882.917)" fill="#202020"/>
  </g>
</svg>
